Nunito-500.ufo
<glyph name="seven" format="1">
  <advance width="1190"/>
  <unicode hex="0037"/>
  <outline>
    <contour>
      <point x="452" y="0" type="curve" smooth="yes"/>
      <point x="491" y="0"/>
      <point x="530" y="18"/>
      <point x="550" y="63" type="curve" smooth="yes"/>
      <point x="1054" y="1226" type="line" smooth="yes"/>
      <point x="1068" y="1258"/>
      <point x="1075" y="1295"/>
      <point x="1075" y="1323" type="curve" smooth="yes"/>
      <point x="1075" y="1384"/>
      <point x="1034" y="1427"/>
      <point x="951" y="1427" type="curve" smooth="yes"/>
      <point x="184" y="1427" type="line" smooth="yes"/>
      <point x="125" y="1427"/>
      <point x="96" y="1381"/>
      <point x="96" y="1337" type="curve" smooth="yes"/>
      <point x="96" y="1293"/>
      <point x="125" y="1248"/>
      <point x="184" y="1248" type="curve" smooth="yes"/>
      <point x="827" y="1248" type="line"/>
      <point x="349" y="153" type="line" smooth="yes"/>
      <point x="341" y="135"/>
      <point x="336" y="119"/>
      <point x="337" y="104" type="curve"/>
      <point x="337" y="42"/>
      <point x="394" y="0"/>
    </contour>
  </outline>
</glyph>
<glyph name="eight" format="1">
  <advance width="1190"/>
  <unicode hex="0038"/>
  <outline>
    <contour>
      <point x="595" y="-22" type="curve" smooth="yes"/>
      <point x="889" y="-22"/>
      <point x="1104" y="128"/>
      <point x="1104" y="388" type="curve" smooth="yes"/>
      <point x="1104" y="568"/>
      <point x="1012" y="696"/>
      <point x="825" y="746" type="curve"/>
      <point x="988" y="784"/>
      <point x="1079" y="908"/>
      <point x="1079" y="1072" type="curve" smooth="yes"/>
      <point x="1079" y="1326"/>
      <point x="868" y="1462"/>
      <point x="595" y="1462" type="curve" smooth="yes"/>
      <point x="322" y="1462"/>
      <point x="112" y="1325"/>
      <point x="112" y="1072" type="curve" smooth="yes"/>
      <point x="112" y="908"/>
      <point x="199" y="788"/>
      <point x="367" y="746" type="curve"/>
      <point x="183" y="707"/>
      <point x="86" y="563"/>
      <point x="86" y="388" type="curve" smooth="yes"/>
      <point x="86" y="128"/>
      <point x="301" y="-22"/>
    </contour>
    <contour>
      <point x="595" y="148" type="curve" smooth="yes"/>
      <point x="442" y="148"/>
      <point x="313" y="213"/>
      <point x="313" y="388" type="curve" smooth="yes"/>
      <point x="313" y="565"/>
      <point x="441" y="649"/>
      <point x="595" y="649" type="curve" smooth="yes"/>
      <point x="749" y="649"/>
      <point x="877" y="565"/>
      <point x="877" y="388" type="curve" smooth="yes"/>
      <point x="877" y="213"/>
      <point x="749" y="148"/>
    </contour>
    <contour>
      <point x="595" y="847" type="curve" smooth="yes"/>
      <point x="433" y="847"/>
      <point x="327" y="924"/>
      <point x="327" y="1079" type="curve" smooth="yes"/>
      <point x="327" y="1244"/>
      <point x="457" y="1299"/>
      <point x="595" y="1299" type="curve" smooth="yes"/>
      <point x="735" y="1299"/>
      <point x="864" y="1244"/>
      <point x="864" y="1079" type="curve" smooth="yes"/>
      <point x="864" y="924"/>
      <point x="760" y="847"/>
    </contour>
  </outline>
</glyph>
<glyph name="A" format="1">
  <advance width="1441"/>
  <unicode hex="0041"/>
  <outline>
    <contour>
      <point x="720" y="1438" type="move" name="top"/>
    </contour>
    <contour>
      <point x="1266" y="19" type="move" name="ogonek"/>
    </contour>
    <contour>
      <point x="275" y="66" type="curve" smooth="yes"/>
      <point x="722" y="1225" type="line"/>
      <point x="722" y="1444" type="line"/>
      <point x="648" y="1444"/>
      <point x="587" y="1425"/>
      <point x="536" y="1298" type="curve" smooth="yes"/>
      <point x="67" y="129" type="line" smooth="yes"/>
      <point x="17" y="4"/>
      <point x="223" y="-71"/>
    </contour>
    <contour>
      <point x="1168" y="66" type="line"/>
      <point x="1221" y="-71"/>
      <point x="1427" y="4"/>
      <point x="1376" y="129" type="curve" smooth="yes"/>
      <point x="907" y="1298" type="line" smooth="yes"/>
      <point x="856" y="1425"/>
      <point x="796" y="1444"/>
      <point x="722" y="1444" type="curve"/>
      <point x="722" y="1225" type="line"/>
    </contour>
    <contour>
      <point x="282" y="351" type="line"/>
      <point x="1169" y="351" type="line"/>
      <point x="1106" y="513" type="line"/>
      <point x="340" y="513" type="line"/>
    </contour>
  </outline>
</glyph>
<glyph name="M" format="1">
  <advance width="1913"/>
  <unicode hex="004D"/>
  <outline>
    <contour>
      <point x="977" y="1438" type="move" name="top"/>
    </contour>
    <contour>
      <point x="952" y="41" type="curve"/>
      <point x="952" y="314" type="line"/>
      <point x="533" y="1267" type="line" smooth="yes"/>
      <point x="444" y="1473"/>
      <point x="177" y="1408"/>
      <point x="177" y="1249" type="curve" smooth="yes"/>
      <point x="177" y="96" type="line" smooth="yes"/>
      <point x="177" y="-8"/>
      <point x="386" y="-8"/>
      <point x="386" y="96" type="curve" smooth="yes"/>
      <point x="386" y="1140" type="line"/>
      <point x="819" y="141" type="line" smooth="yes"/>
      <point x="847" y="75"/>
      <point x="901" y="41"/>
    </contour>
    <contour>
      <point x="952" y="41" type="line"/>
      <point x="1003" y="41"/>
      <point x="1057" y="75"/>
      <point x="1084" y="141" type="curve" smooth="yes"/>
      <point x="1518" y="1140" type="line"/>
      <point x="1518" y="96" type="line" smooth="yes"/>
      <point x="1518" y="-8"/>
      <point x="1727" y="-8"/>
      <point x="1727" y="96" type="curve" smooth="yes"/>
      <point x="1727" y="1249" type="line" smooth="yes"/>
      <point x="1727" y="1408"/>
      <point x="1460" y="1473"/>
      <point x="1371" y="1267" type="curve" smooth="yes"/>
      <point x="952" y="314" type="line"/>
    </contour>
  </outline>
</glyph>
<glyph name="P" format="1">
  <advance width="1260"/>
  <unicode hex="0050"/>
  <outline>
    <contour>
      <point x="655" y="1438" type="move" name="top"/>
    </contour>
    <contour>
      <point x="289" y="-1" type="curve" smooth="yes"/>
      <point x="346" y="-1"/>
      <point x="402" y="35"/>
      <point x="402" y="109" type="curve" smooth="yes"/>
      <point x="402" y="602" type="line"/>
      <point x="700" y="602" type="line" smooth="yes"/>
      <point x="1016" y="602"/>
      <point x="1230" y="706"/>
      <point x="1230" y="1018" type="curve" smooth="yes"/>
      <point x="1230" y="1323"/>
      <point x="1035" y="1433"/>
      <point x="720" y="1433" type="curve" smooth="yes"/>
      <point x="290" y="1433" type="line" smooth="yes"/>
      <point x="226" y="1433"/>
      <point x="175" y="1382"/>
      <point x="175" y="1320" type="curve" smooth="yes"/>
      <point x="175" y="109" type="line" smooth="yes"/>
      <point x="175" y="36"/>
      <point x="232" y="-1"/>
    </contour>
    <contour>
      <point x="402" y="775" type="line"/>
      <point x="402" y="1253" type="line"/>
      <point x="704" y="1253" type="line" smooth="yes"/>
      <point x="904" y="1253"/>
      <point x="1006" y="1203"/>
      <point x="1006" y="1018" type="curve" smooth="yes"/>
      <point x="1006" y="830"/>
      <point x="900" y="775"/>
      <point x="695" y="775" type="curve" smooth="yes"/>
    </contour>
  </outline>
</glyph>
<glyph name="W" format="1">
  <advance width="2095"/>
  <unicode hex="0057"/>
  <outline>
    <contour>
      <point x="1044" y="1438" type="move" name="top"/>
    </contour>
    <contour>
      <point x="374" y="123" type="line"/>
      <point x="419" y="-46"/>
      <point x="658" y="-41"/>
      <point x="709" y="121" type="curve" smooth="yes"/>
      <point x="1044" y="1175" type="line"/>
      <point x="1044" y="1433" type="line"/>
      <point x="977" y="1433"/>
      <point x="925" y="1411"/>
      <point x="894" y="1312" type="curve" smooth="yes"/>
      <point x="553" y="222" type="line"/>
      <point x="265" y="1357" type="line" smooth="yes"/>
      <point x="233" y="1484"/>
      <point x="17" y="1443"/>
      <point x="55" y="1302" type="curve" smooth="yes"/>
    </contour>
    <contour>
      <point x="1714" y="123" type="curve" smooth="yes"/>
      <point x="2033" y="1302" type="line" smooth="yes"/>
      <point x="2071" y="1443"/>
      <point x="1855" y="1484"/>
      <point x="1823" y="1357" type="curve" smooth="yes"/>
      <point x="1535" y="222" type="line"/>
      <point x="1194" y="1312" type="line" smooth="yes"/>
      <point x="1162" y="1414"/>
      <point x="1111" y="1433"/>
      <point x="1044" y="1433" type="curve"/>
      <point x="1044" y="1175" type="line"/>
      <point x="1379" y="121" type="line" smooth="yes"/>
      <point x="1431" y="-44"/>
      <point x="1669" y="-42"/>
    </contour>
  </outline>
</glyph>
<glyph name="a" format="1">
  <advance width="1056"/>
  <unicode hex="0061"/>
  <outline>
    <contour>
      <point x="534" y="997" type="move" name="top"/>
    </contour>
    <contour>
      <point x="803" y="20" type="move" name="ogonek"/>
    </contour>
    <contour>
      <point x="421" y="-16" type="curve" smooth="yes"/>
      <point x="598" y="-16"/>
      <point x="678" y="81"/>
      <point x="720" y="167" type="curve"/>
      <point x="720" y="93" type="line" smooth="yes"/>
      <point x="720" y="-33"/>
      <point x="918" y="-31"/>
      <point x="918" y="95" type="curve" smooth="yes"/>
      <point x="918" y="659" type="line" smooth="yes"/>
      <point x="918" y="912"/>
      <point x="754" y="1013"/>
      <point x="522" y="1013" type="curve" smooth="yes"/>
      <point x="358" y="1013"/>
      <point x="241" y="976"/>
      <point x="154" y="929" type="curve" smooth="yes"/>
      <point x="80" y="891"/>
      <point x="143" y="774"/>
      <point x="217" y="805" type="curve" smooth="yes"/>
      <point x="288" y="835"/>
      <point x="388" y="878"/>
      <point x="515" y="878" type="curve" smooth="yes"/>
      <point x="640" y="878"/>
      <point x="717" y="819"/>
      <point x="717" y="676" type="curve" smooth="yes"/>
      <point x="717" y="578" type="line"/>
      <point x="253" y="578"/>
      <point x="69" y="546"/>
      <point x="69" y="272" type="curve" smooth="yes"/>
      <point x="69" y="81"/>
      <point x="222" y="-16"/>
    </contour>
    <contour>
      <point x="441" y="116" type="curve" smooth="yes"/>
      <point x="337" y="116"/>
      <point x="259" y="163"/>
      <point x="260" y="282" type="curve" smooth="yes"/>
      <point x="262" y="438"/>
      <point x="354" y="463"/>
      <point x="716" y="463" type="curve"/>
      <point x="716" y="435" type="line" smooth="yes"/>
      <point x="716" y="243"/>
      <point x="580" y="116"/>
    </contour>
  </outline>
</glyph>
<glyph name="b" format="1">
  <advance width="1199"/>
  <unicode hex="0062"/>
  <outline>
    <contour>
      <point x="685" y="-16" type="curve" smooth="yes"/>
      <point x="970" y="-16"/>
      <point x="1116" y="229"/>
      <point x="1116" y="505" type="curve" smooth="yes"/>
      <point x="1116" y="797"/>
      <point x="951" y="1013"/>
      <point x="670" y="1013" type="curve" smooth="yes"/>
      <point x="524" y="1013"/>
      <point x="411" y="953"/>
      <point x="347" y="838" type="curve"/>
      <point x="347" y="1338" type="line" smooth="yes"/>
      <point x="347" y="1401"/>
      <point x="297" y="1432"/>
      <point x="246" y="1432" type="curve" smooth="yes"/>
      <point x="196" y="1432"/>
      <point x="146" y="1401"/>
      <point x="146" y="1338" type="curve" smooth="yes"/>
      <point x="146" y="97" type="line" smooth="yes"/>
      <point x="146" y="34"/>
      <point x="197" y="1"/>
      <point x="247" y="1" type="curve" smooth="yes"/>
      <point x="310" y="1"/>
      <point x="347" y="34"/>
      <point x="347" y="97" type="curve" smooth="yes"/>
      <point x="347" y="168" type="line"/>
      <point x="415" y="42"/>
      <point x="536" y="-16"/>
    </contour>
    <contour>
      <point x="644" y="121" type="curve" smooth="yes"/>
      <point x="418" y="121"/>
      <point x="348" y="278"/>
      <point x="348" y="502" type="curve" smooth="yes"/>
      <point x="348" y="689"/>
      <point x="427" y="876"/>
      <point x="637" y="876" type="curve" smooth="yes"/>
      <point x="848" y="876"/>
      <point x="915" y="675"/>
      <point x="915" y="502" type="curve" smooth="yes"/>
      <point x="915" y="338"/>
      <point x="854" y="123"/>
    </contour>
  </outline>
</glyph>
<glyph name="f" format="1">
  <advance width="711"/>
  <unicode hex="0066"/>
  <outline>
    <contour>
      <point x="331" y="0" type="curve" smooth="yes"/>
      <point x="382" y="0"/>
      <point x="432" y="33"/>
      <point x="432" y="99" type="curve" smooth="yes"/>
      <point x="432" y="856" type="line"/>
      <point x="591" y="856" type="line" smooth="yes"/>
      <point x="641" y="856"/>
      <point x="662" y="885"/>
      <point x="662" y="921" type="curve" smooth="yes"/>
      <point x="662" y="954"/>
      <point x="641" y="987"/>
      <point x="591" y="987" type="curve" smooth="yes"/>
      <point x="432" y="987" type="line"/>
      <point x="432" y="1070" type="line" smooth="yes"/>
      <point x="432" y="1267"/>
      <point x="470" y="1290"/>
      <point x="569" y="1290" type="curve" smooth="yes"/>
      <point x="654" y="1290" type="line" smooth="yes"/>
      <point x="749" y="1290"/>
      <point x="743" y="1445"/>
      <point x="654" y="1445" type="curve" smooth="yes"/>
      <point x="531" y="1445" type="line" smooth="yes"/>
      <point x="359" y="1445"/>
      <point x="230" y="1361"/>
      <point x="230" y="1109" type="curve" smooth="yes"/>
      <point x="230" y="987" type="line"/>
      <point x="109" y="987" type="line" smooth="yes"/>
      <point x="58" y="987"/>
      <point x="36" y="954"/>
      <point x="36" y="921" type="curve" smooth="yes"/>
      <point x="36" y="886"/>
      <point x="58" y="856"/>
      <point x="109" y="856" type="curve" smooth="yes"/>
      <point x="230" y="856" type="line"/>
      <point x="230" y="99" type="line" smooth="yes"/>
      <point x="230" y="33"/>
      <point x="280" y="0"/>
    </contour>
  </outline>
</glyph>
<glyph name="q" format="1">
  <advance width="1199"/>
  <unicode hex="0071"/>
  <outline>
    <contour>
      <point x="953" y="-381" type="curve" smooth="yes"/>
      <point x="1003" y="-381"/>
      <point x="1053" y="-349"/>
      <point x="1053" y="-287" type="curve" smooth="yes"/>
      <point x="1053" y="900" type="line" smooth="yes"/>
      <point x="1053" y="963"/>
      <point x="1002" y="996"/>
      <point x="952" y="996" type="curve" smooth="yes"/>
      <point x="889" y="996"/>
      <point x="852" y="963"/>
      <point x="852" y="901" type="curve" smooth="yes"/>
      <point x="852" y="830" type="line"/>
      <point x="784" y="956"/>
      <point x="663" y="1013"/>
      <point x="514" y="1013" type="curve" smooth="yes"/>
      <point x="229" y="1013"/>
      <point x="83" y="768"/>
      <point x="83" y="493" type="curve" smooth="yes"/>
      <point x="83" y="201"/>
      <point x="248" y="-16"/>
      <point x="529" y="-16" type="curve" smooth="yes"/>
      <point x="675" y="-16"/>
      <point x="788" y="44"/>
      <point x="852" y="160" type="curve"/>
      <point x="852" y="-287" type="line" smooth="yes"/>
      <point x="852" y="-349"/>
      <point x="902" y="-381"/>
    </contour>
    <contour>
      <point x="562" y="121" type="curve" smooth="yes"/>
      <point x="351" y="121"/>
      <point x="284" y="321"/>
      <point x="284" y="495" type="curve" smooth="yes"/>
      <point x="284" y="659"/>
      <point x="344" y="875"/>
      <point x="555" y="876" type="curve" smooth="yes"/>
      <point x="781" y="876"/>
      <point x="851" y="719"/>
      <point x="851" y="495" type="curve" smooth="yes"/>
      <point x="851" y="308"/>
      <point x="772" y="121"/>
    </contour>
  </outline>
</glyph>
<glyph name="u" format="1">
  <advance width="1170"/>
  <unicode hex="0075"/>
  <outline>
    <contour>
      <point x="581" y="995" type="move" name="top"/>
    </contour>
    <contour>
      <point x="913" y="21" type="move" name="ogonek"/>
    </contour>
    <contour>
      <point x="497" y="-16" type="curve" smooth="yes"/>
      <point x="647" y="-16"/>
      <point x="769" y="47"/>
      <point x="823" y="163" type="curve"/>
      <point x="823" y="91" type="line" smooth="yes"/>
      <point x="823" y="30"/>
      <point x="873" y="0"/>
      <point x="923" y="0" type="curve" smooth="yes"/>
      <point x="974" y="0"/>
      <point x="1025" y="31"/>
      <point x="1025" y="95" type="curve" smooth="yes"/>
      <point x="1025" y="900" type="line" smooth="yes"/>
      <point x="1025" y="965"/>
      <point x="975" y="997"/>
      <point x="925" y="997" type="curve" smooth="yes"/>
      <point x="873" y="997"/>
      <point x="823" y="964"/>
      <point x="823" y="900" type="curve" smooth="yes"/>
      <point x="823" y="426" type="line" smooth="yes"/>
      <point x="818" y="234"/>
      <point x="693" y="121"/>
      <point x="550" y="121" type="curve" smooth="yes"/>
      <point x="421" y="121"/>
      <point x="337" y="203"/>
      <point x="337" y="368" type="curve" smooth="yes"/>
      <point x="337" y="900" type="line" smooth="yes"/>
      <point x="337" y="965"/>
      <point x="287" y="997"/>
      <point x="237" y="997" type="curve" smooth="yes"/>
      <point x="186" y="997"/>
      <point x="136" y="965"/>
      <point x="136" y="900" type="curve" smooth="yes"/>
      <point x="136" y="370" type="line" smooth="yes"/>
      <point x="136" y="99"/>
      <point x="298" y="-16"/>
    </contour>
  </outline>
</glyph>
<glyph name="v" format="1">
  <advance width="1051"/>
  <unicode hex="0076"/>
  <outline>
    <contour>
      <point x="529" y="-2" type="curve"/>
      <point x="529" y="202" type="line"/>
      <point x="236" y="934" type="line" smooth="yes"/>
      <point x="188" y="1060"/>
      <point x="18" y="975"/>
      <point x="60" y="872" type="curve" smooth="yes"/>
      <point x="358" y="147" type="line" smooth="yes"/>
      <point x="400" y="44"/>
      <point x="441" y="-2"/>
    </contour>
    <contour>
      <point x="529" y="-2" type="line"/>
      <point x="617" y="-2"/>
      <point x="658" y="44"/>
      <point x="700" y="147" type="curve" smooth="yes"/>
      <point x="999" y="872" type="line" smooth="yes"/>
      <point x="1041" y="975"/>
      <point x="871" y="1060"/>
      <point x="822" y="934" type="curve" smooth="yes"/>
      <point x="529" y="202" type="line"/>
    </contour>
  </outline>
</glyph>
<glyph name="logicalnot" format="1">
  <advance width="1326"/>
  <unicode hex="00AC"/>
  <outline>
    <contour>
      <point x="1098" y="232" type="curve" smooth="yes"/>
      <point x="1137" y="232"/>
      <point x="1177" y="257"/>
      <point x="1177" y="308" type="curve" smooth="yes"/>
      <point x="1177" y="723" type="line" smooth="yes"/>
      <point x="1177" y="763"/>
      <point x="1137" y="802"/>
      <point x="1097" y="802" type="curve" smooth="yes"/>
      <point x="223" y="802" type="line" smooth="yes"/>
      <point x="174" y="802"/>
      <point x="151" y="763"/>
      <point x="151" y="724" type="curve" smooth="yes"/>
      <point x="151" y="684"/>
      <point x="174" y="646"/>
      <point x="223" y="646" type="curve" smooth="yes"/>
      <point x="1020" y="646" type="line"/>
      <point x="1020" y="308" type="line" smooth="yes"/>
      <point x="1020" y="257"/>
      <point x="1058" y="232"/>
    </contour>
  </outline>
</glyph>
<glyph name="Lslash" format="1">
  <advance width="1163"/>
  <unicode hex="0141"/>
  <outline>
    <contour>
      <point x="78" y="615" type="curve" smooth="yes"/>
      <point x="704" y="822" type="line" smooth="yes"/>
      <point x="801" y="854"/>
      <point x="751" y="997"/>
      <point x="657" y="966" type="curve" smooth="yes"/>
      <point x="32" y="762" type="line" smooth="yes"/>
      <point x="-69" y="729"/>
      <point x="-24" y="581"/>
    </contour>
    <component base="L"/>
  </outline>
</glyph>
<glyph name="dblgravecmb" format="1">
  <advance width="569"/>
  <unicode hex="030F"/>
  <outline>
    <contour>
      <point x="487" y="1057" type="move" name="_top"/>
    </contour>
    <contour>
      <point x="289" y="1168" type="curve" smooth="yes"/>
      <point x="315" y="1168"/>
      <point x="335" y="1188"/>
      <point x="335" y="1213" type="curve"/>
      <point x="334" y="1227"/>
      <point x="330" y="1239"/>
      <point x="320" y="1252" type="curve" smooth="yes"/>
      <point x="70" y="1548" type="line" smooth="yes"/>
      <point x="49" y="1574"/>
      <point x="29" y="1587"/>
      <point x="3" y="1587" type="curve" smooth="yes"/>
      <point x="-46" y="1587"/>
      <point x="-101" y="1540"/>
      <point x="-101" y="1489" type="curve" smooth="yes"/>
      <point x="-101" y="1470"/>
      <point x="-93" y="1451"/>
      <point x="-75" y="1437" type="curve" smooth="yes"/>
      <point x="238" y="1189" type="line" smooth="yes"/>
      <point x="255" y="1175"/>
      <point x="274" y="1168"/>
    </contour>
    <contour>
      <point x="639" y="1168" type="curve" smooth="yes"/>
      <point x="666" y="1168"/>
      <point x="684" y="1187"/>
      <point x="685" y="1211" type="curve"/>
      <point x="684" y="1226"/>
      <point x="680" y="1238"/>
      <point x="670" y="1251" type="curve" smooth="yes"/>
      <point x="422" y="1547" type="line" smooth="yes"/>
      <point x="399" y="1573"/>
      <point x="379" y="1587"/>
      <point x="353" y="1587" type="curve" smooth="yes"/>
      <point x="302" y="1587"/>
      <point x="249" y="1538"/>
      <point x="249" y="1489" type="curve" smooth="yes"/>
      <point x="249" y="1470"/>
      <point x="257" y="1451"/>
      <point x="275" y="1437" type="curve" smooth="yes"/>
      <point x="585" y="1192" type="line" smooth="yes"/>
      <point x="603" y="1177"/>
      <point x="623" y="1168"/>
    </contour>
  </outline>
</glyph>
<glyph name="commaaccent" format="1">
  <advance width="602"/>
  <unicode hex="0326"/>
  <outline>
    <contour>
      <point x="323" y="0" type="move" name="_bot"/>
    </contour>
    <contour>
      <point x="152" y="-617" type="curve"/>
      <point x="207" y="-617" type="line"/>
      <point x="236" y="-618"/>
      <point x="252" y="-606"/>
      <point x="263" y="-574" type="curve" smooth="yes"/>
      <point x="408" y="-160" type="line" smooth="yes"/>
      <point x="413" y="-146"/>
      <point x="416" y="-107"/>
      <point x="374" y="-104" type="curve"/>
      <point x="271" y="-104" type="line"/>
      <point x="239" y="-105"/>
      <point x="206" y="-113"/>
      <point x="198" y="-160" type="curve" smooth="yes"/>
      <point x="128" y="-574" type="line" smooth="yes"/>
      <point x="126" y="-586"/>
      <point x="124" y="-616"/>
    </contour>
  </outline>
</glyph>
<glyph name="quotedblleft" format="1">
  <advance width="1154"/>
  <unicode hex="201C"/>
  <outline>
    <contour>
      <point x="228" y="927" type="curve" smooth="yes"/>
      <point x="354" y="927" type="line" smooth="yes"/>
      <point x="386" y="928"/>
      <point x="419" y="936"/>
      <point x="427" y="983" type="curve" smooth="yes"/>
      <point x="499" y="1390" type="line" smooth="yes"/>
      <point x="501" y="1402"/>
      <point x="503" y="1433"/>
      <point x="475" y="1433" type="curve" smooth="yes"/>
      <point x="411" y="1433" type="line" smooth="yes"/>
      <point x="382" y="1433"/>
      <point x="367" y="1422"/>
      <point x="355" y="1390" type="curve" smooth="yes"/>
      <point x="194" y="983" type="line" smooth="yes"/>
      <point x="189" y="969"/>
      <point x="186" y="927"/>
    </contour>
    <contour>
      <point x="636" y="927" type="curve" smooth="yes"/>
      <point x="761" y="927" type="line" smooth="yes"/>
      <point x="793" y="928"/>
      <point x="826" y="936"/>
      <point x="834" y="983" type="curve" smooth="yes"/>
      <point x="907" y="1390" type="line" smooth="yes"/>
      <point x="909" y="1402"/>
      <point x="911" y="1433"/>
      <point x="883" y="1433" type="curve" smooth="yes"/>
      <point x="819" y="1433" type="line" smooth="yes"/>
      <point x="790" y="1433"/>
      <point x="774" y="1422"/>
      <point x="763" y="1390" type="curve" smooth="yes"/>
      <point x="602" y="983" type="line" smooth="yes"/>
      <point x="596" y="969"/>
      <point x="594" y="927"/>
    </contour>
  </outline>
</glyph>
<glyph name="quotedblbase" format="1">
  <advance width="1154"/>
  <unicode hex="201E"/>
  <outline>
    <contour>
      <point x="256" y="-254" type="curve"/>
      <point x="321" y="-254" type="line"/>
      <point x="350" y="-255"/>
      <point x="365" y="-243"/>
      <point x="377" y="-211" type="curve" smooth="yes"/>
      <point x="537" y="196" type="line" smooth="yes"/>
      <point x="543" y="210"/>
      <point x="545" y="249"/>
      <point x="503" y="252" type="curve"/>
      <point x="378" y="252" type="line"/>
      <point x="346" y="251"/>
      <point x="313" y="243"/>
      <point x="305" y="196" type="curve" smooth="yes"/>
      <point x="232" y="-211" type="line" smooth="yes"/>
      <point x="230" y="-223"/>
      <point x="228" y="-253"/>
    </contour>
    <contour>
      <point x="668" y="-254" type="curve"/>
      <point x="732" y="-254" type="line"/>
      <point x="761" y="-255"/>
      <point x="777" y="-243"/>
      <point x="788" y="-211" type="curve" smooth="yes"/>
      <point x="949" y="196" type="line" smooth="yes"/>
      <point x="955" y="210"/>
      <point x="957" y="249"/>
      <point x="915" y="252" type="curve"/>
      <point x="790" y="252" type="line"/>
      <point x="758" y="251"/>
      <point x="725" y="243"/>
      <point x="717" y="196" type="curve" smooth="yes"/>
      <point x="644" y="-211" type="line" smooth="yes"/>
      <point x="642" y="-223"/>
      <point x="640" y="-253"/>
    </contour>
  </outline>
</glyph>
<glyph name="emptyset" format="1">
  <advance width="1745"/>
  <unicode hex="2205"/>
  <outline>
    <contour>
      <point x="424" y="20" type="curve" smooth="yes"/>
      <point x="456" y="17"/>
      <point x="483" y="53"/>
      <point x="507" y="84" type="curve" smooth="yes"/>
      <point x="1367" y="1225" type="line"/>
      <point x="1383" y="1248"/>
      <point x="1404" y="1274"/>
      <point x="1407" y="1296" type="curve" smooth="yes"/>
      <point x="1411" y="1328"/>
      <point x="1388" y="1359"/>
      <point x="1357" y="1363" type="curve" smooth="yes"/>
      <point x="1336" y="1366"/>
      <point x="1315" y="1358"/>
      <point x="1297" y="1333" type="curve" smooth="yes"/>
      <point x="410" y="155" type="line"/>
      <point x="393" y="136"/>
      <point x="372" y="105"/>
      <point x="369" y="90" type="curve" smooth="yes"/>
      <point x="366" y="57"/>
      <point x="390" y="25"/>
    </contour>
    <contour>
      <point x="874" y="230" type="curve" smooth="yes"/>
      <point x="596" y="230"/>
      <point x="397" y="438"/>
      <point x="397" y="698" type="curve" smooth="yes"/>
      <point x="397" y="964"/>
      <point x="604" y="1166"/>
      <point x="874" y="1166" type="curve" smooth="yes"/>
      <point x="1150" y="1166"/>
      <point x="1349" y="956"/>
      <point x="1349" y="698" type="curve" smooth="yes"/>
      <point x="1349" y="423"/>
      <point x="1132" y="230"/>
    </contour>
    <contour>
      <point x="874" y="121" type="curve" smooth="yes"/>
      <point x="1206" y="121"/>
      <point x="1478" y="381"/>
      <point x="1478" y="698" type="curve" smooth="yes"/>
      <point x="1478" y="1032"/>
      <point x="1192" y="1280"/>
      <point x="874" y="1280" type="curve" smooth="yes"/>
      <point x="526" y="1280"/>
      <point x="267" y="1006"/>
      <point x="267" y="698" type="curve" smooth="yes"/>
      <point x="267" y="368"/>
      <point x="550" y="121"/>
    </contour>
  </outline>
</glyph>
<glyph name="notequal" format="1">
  <advance width="1174"/>
  <unicode hex="2260"/>
  <outline>
    <contour>
      <point x="358" y="-17" type="curve" smooth="yes"/>
      <point x="388" y="-17"/>
      <point x="415" y="-2"/>
      <point x="431" y="34" type="curve" smooth="yes"/>
      <point x="544" y="282" type="line"/>
      <point x="1034" y="282" type="line" smooth="yes"/>
      <point x="1085" y="282"/>
      <point x="1111" y="320"/>
      <point x="1111" y="359" type="curve" smooth="yes"/>
      <point x="1111" y="397"/>
      <point x="1085" y="435"/>
      <point x="1034" y="435" type="curve" smooth="yes"/>
      <point x="610" y="435" type="line"/>
      <point x="724" y="690" type="line"/>
      <point x="1034" y="690" type="line" smooth="yes"/>
      <point x="1085" y="690"/>
      <point x="1110" y="727"/>
      <point x="1110" y="765" type="curve" smooth="yes"/>
      <point x="1110" y="804"/>
      <point x="1084" y="842"/>
      <point x="1034" y="842" type="curve" smooth="yes"/>
      <point x="789" y="842" type="line"/>
      <point x="873" y="1024" type="line" smooth="yes"/>
      <point x="879" y="1036"/>
      <point x="881" y="1048"/>
      <point x="881" y="1060" type="curve"/>
      <point x="881" y="1104"/>
      <point x="842" y="1132"/>
      <point x="802" y="1132" type="curve" smooth="yes"/>
      <point x="771" y="1132"/>
      <point x="743" y="1118"/>
      <point x="727" y="1082" type="curve" smooth="yes"/>
      <point x="620" y="842" type="line"/>
      <point x="165" y="842" type="line" smooth="yes"/>
      <point x="113" y="842"/>
      <point x="89" y="805"/>
      <point x="89" y="766" type="curve" smooth="yes"/>
      <point x="89" y="728"/>
      <point x="114" y="690"/>
      <point x="165" y="690" type="curve" smooth="yes"/>
      <point x="555" y="690" type="line"/>
      <point x="439" y="435" type="line"/>
      <point x="165" y="435" type="line" smooth="yes"/>
      <point x="114" y="435"/>
      <point x="89" y="398"/>
      <point x="89" y="359" type="curve" smooth="yes"/>
      <point x="89" y="320"/>
      <point x="115" y="282"/>
      <point x="165" y="282" type="curve" smooth="yes"/>
      <point x="375" y="282" type="line"/>
      <point x="288" y="93" type="line" smooth="yes"/>
      <point x="282" y="79"/>
      <point x="279" y="68"/>
      <point x="280" y="56" type="curve"/>
      <point x="280" y="12"/>
      <point x="318" y="-17"/>
    </contour>
  </outline>
</glyph>
